# xmcd CD database file
#
# Track frame offsets:
#	150
#	18177
#	37772
#	54390
#	71660
#	92180
#	105227
#	123937
#	138992
#	162302
#	176132
#	197110
#	214065
#	231890
#	251235
#	268792
#
# Disc length: 3648 seconds
#
# Revision: 4
# Processed by: cddbd v1.5.2PL0 Copyright (c) Steve Scherf et al.
# Submitted via: CDex 1.70beta2
#
DISCID=de0e3e10
DTITLE=The Band - Cahoots
DYEAR=1971
DGENRE=Rock
TTITLE0=Life Is A Carnival
TTITLE1=When I Paint My Masterpiece
TTITLE2=Last Of The Blacksmiths
TTITLE3=Where Do We Go From Here?
TTITLE4=4% Pantomime
TTITLE5=Shootout In Chinatown
TTITLE6=The Moon Struck One
TTITLE7=Thinkin' Out Loud
TTITLE8=Smoke Signal
TTITLE9=Volcano
TTITLE10=The River Hymn
TTITLE11=Endless Highway [early studio take]
TTITLE12=When I Paint My Masterpiece [alternate take]
TTITLE13=Bessie Smith [outtake]
TTITLE14=Don't Do It [outtake-studio version]
TTITLE15=Radio Commercial
EXTD=YEAR: 1971
EXTT0=
EXTT1=
EXTT2=
EXTT3=
EXTT4=
EXTT5=
EXTT6=
EXTT7=
EXTT8=
EXTT9=
EXTT10=
EXTT11=
EXTT12=
EXTT13=
EXTT14=
EXTT15=
PLAYORDER=
